<?xml version="1.0" encoding="UTF-8" standalone="no"?>
<!DOCTYPE svg PUBLIC "-//W3C//DTD SVG 1.1//EN" "http://www.w3.org/Graphics/SVG/1.1/DTD/svg11.dtd">
<svg width="100%" height="100%" viewBox="0 0 2931 2931" version="1.1" xmlns="http://www.w3.org/2000/svg" xmlns:xlink="http://www.w3.org/1999/xlink" xml:space="preserve" xmlns:serif="http://www.serif.com/" style="fill-rule:evenodd;clip-rule:evenodd;stroke-linejoin:round;stroke-miterlimit:2;">
    <g transform="matrix(1,0,0,1,-378.125,-2135.17)">
        <g transform="matrix(101.101,0,0,83.2648,569.979,123.696)">
            <g transform="matrix(1.15785,0,0,1.15785,0.299551,-3.81337)">
                <g transform="matrix(0.625959,0,0,0.760047,-4.40148,21.1173)">
                    <circle cx="24" cy="24" r="20" style="fill:rgb(64,69,79);"/>
                </g>
                <g transform="matrix(0.625959,0,0,0.760047,-4.40148,21.1173)">
                    <path d="M34.139,17.887L33.184,18.152C32.731,18.278 32.372,17.764 32.645,17.382L33.221,16.575C33.344,16.375 33.141,16.134 32.923,16.22L32.085,16.62C31.642,16.831 31.179,16.369 31.391,15.926L31.791,15.088C31.877,14.87 31.636,14.667 31.436,14.79L30.629,15.366C30.246,15.639 29.733,15.28 29.859,14.827L30.124,13.872C30.171,13.642 29.898,13.485 29.723,13.64L29.028,14.347C28.699,14.682 28.131,14.417 28.176,13.95L28.271,12.963C28.277,12.728 27.981,12.621 27.835,12.804L27.273,13.621C27.007,14.008 26.402,13.846 26.365,13.378L26.287,12.39C26.253,12.158 25.942,12.103 25.831,12.31L25.42,13.212C25.225,13.64 24.601,13.585 24.483,13.13L24.235,12.17C24.161,11.947 23.846,11.947 23.772,12.17L23.524,13.13C23.406,13.585 22.782,13.64 22.587,13.212L22.176,12.31C22.064,12.104 21.754,12.158 21.72,12.39L21.642,13.378C21.605,13.847 21,14.009 20.734,13.621L20.172,12.804C20.026,12.62 19.73,12.728 19.736,12.962L19.831,13.949C19.876,14.417 19.308,14.682 18.979,14.346L18.284,13.639C18.108,13.483 17.836,13.641 17.883,13.871L18.148,14.826C18.274,15.279 17.76,15.638 17.378,15.365L16.571,14.789C16.371,14.666 16.13,14.869 16.216,15.087L16.643,15.982C16.845,16.406 16.402,16.849 15.978,16.647L15.083,16.22C14.865,16.134 14.662,16.375 14.785,16.575L15.361,17.382C15.634,17.765 15.275,18.278 14.822,18.152L13.867,17.887C13.637,17.84 13.48,18.113 13.635,18.288L14.342,18.983C14.677,19.312 14.412,19.88 13.945,19.835L12.958,19.74C12.723,19.734 12.616,20.03 12.799,20.175L13.616,20.737C14.003,21.003 13.841,21.608 13.373,21.645L12.385,21.723C12.153,21.757 12.098,22.068 12.305,22.179L13.207,22.59C13.635,22.785 13.58,23.409 13.125,23.527L12.165,23.775C11.942,23.849 11.942,24.164 12.165,24.238L13.125,24.486C13.58,24.604 13.635,25.228 13.207,25.423L12.305,25.834C12.099,25.946 12.153,26.256 12.385,26.29L13.373,26.368C13.842,26.405 14.004,27.01 13.616,27.276L12.799,27.838C12.615,27.984 12.723,28.28 12.957,28.274L13.944,28.179C14.412,28.134 14.677,28.702 14.341,29.031L13.634,29.726C13.478,29.902 13.636,30.174 13.866,30.127L14.821,29.862C15.274,29.736 15.633,30.25 15.36,30.632L14.784,31.439C14.661,31.639 14.864,31.88 15.082,31.794L15.977,31.367C16.401,31.165 16.844,31.608 16.642,32.032L16.215,32.927C16.129,33.145 16.37,33.348 16.57,33.225L17.377,32.649C17.76,32.376 18.273,32.735 18.147,33.188L17.882,34.144C17.835,34.374 18.108,34.531 18.283,34.376L18.978,33.669C19.307,33.334 19.875,33.599 19.83,34.066L19.735,35.053C19.729,35.288 20.025,35.395 20.171,35.212L20.733,34.395C20.999,34.008 21.604,34.17 21.641,34.638L21.719,35.626C21.753,35.858 22.064,35.913 22.175,35.706L22.586,34.804C22.781,34.376 23.405,34.431 23.523,34.886L23.771,35.846C23.845,36.069 24.16,36.069 24.234,35.846L24.482,34.886C24.6,34.431 25.224,34.376 25.419,34.804L25.83,35.706C25.942,35.912 26.252,35.858 26.286,35.626L26.364,34.638C26.401,34.169 27.006,34.007 27.272,34.395L27.834,35.212C27.98,35.396 28.276,35.288 28.27,35.054L28.175,34.067C28.13,33.599 28.698,33.334 29.027,33.67L29.722,34.377C29.898,34.533 30.17,34.375 30.123,34.145L29.858,33.189C29.732,32.736 30.246,32.377 30.628,32.65L31.435,33.226C31.635,33.349 31.876,33.146 31.79,32.928L31.363,32.033C31.161,31.609 31.604,31.166 32.028,31.368L32.923,31.795C33.141,31.881 33.344,31.64 33.221,31.44L32.645,30.633C32.372,30.25 32.731,29.737 33.184,29.863L34.139,30.128C34.369,30.175 34.526,29.902 34.371,29.727L33.664,29.032C33.329,28.703 33.594,28.135 34.061,28.18L35.048,28.275C35.283,28.281 35.39,27.985 35.207,27.839L34.39,27.277C34.003,27.011 34.165,26.406 34.633,26.369L35.621,26.291C35.853,26.257 35.908,25.946 35.701,25.835L34.799,25.424C34.371,25.229 34.426,24.605 34.881,24.487L35.841,24.239C36.064,24.165 36.064,23.85 35.841,23.776L34.881,23.528C34.426,23.41 34.371,22.786 34.799,22.591L35.701,22.18C35.907,22.068 35.853,21.758 35.621,21.724L34.567,21.641C34.12,21.606 33.966,21.029 34.335,20.775L35.206,20.176C35.39,20.03 35.282,19.734 35.048,19.74L34.061,19.835C33.593,19.88 33.328,19.312 33.664,18.983L34.371,18.288C34.527,18.113 34.369,17.84 34.139,17.887ZM23.496,23.135C23.976,22.858 24.589,23.022 24.866,23.502C25.143,23.982 24.979,24.595 24.499,24.872C24.019,25.149 23.406,24.985 23.129,24.505C22.852,24.025 23.016,23.412 23.496,23.135ZM17.477,30.691C16.876,30.109 16.344,29.437 15.905,28.676C13.724,24.898 14.487,20.235 17.475,17.324C18.091,16.724 19.117,16.886 19.548,17.631L22.57,22.865C22.977,23.57 22.977,24.438 22.57,25.142L19.546,30.379C19.116,31.123 18.094,31.288 17.477,30.691ZM33.047,26.328C32.444,28.676 30.934,30.788 28.669,32.096C26.404,33.404 23.82,33.655 21.485,33.003C20.65,32.77 20.267,31.799 20.7,31.048L23.497,26.203C24.044,25.255 25.056,24.671 26.15,24.671L31.745,24.671C32.613,24.671 33.263,25.488 33.047,26.328ZM33.049,21.701C33.258,22.534 32.604,23.336 31.745,23.336L25.698,23.336C24.884,23.336 24.133,22.902 23.726,22.197L20.704,16.963C20.274,16.218 20.646,15.248 21.474,15.014C25.489,13.882 29.909,15.552 32.09,19.331C32.529,20.092 32.845,20.889 33.049,21.701Z" style="fill:rgb(209,209,209);fill-rule:nonzero;"/>
                </g>
                <g transform="matrix(0.625959,0,0,0.760047,-4.40148,21.1173)">
                    <path d="M39.191,14.837L37.76,15.234C37.081,15.422 36.543,14.653 36.952,14.08L37.815,12.871C37.999,12.571 37.696,12.21 37.369,12.339L36.113,12.938C35.449,13.255 34.756,12.561 35.073,11.897L35.672,10.641C35.801,10.314 35.44,10.011 35.14,10.195L33.93,11.058C33.357,11.467 32.588,10.928 32.776,10.25L33.173,8.818C33.243,8.473 32.835,8.237 32.572,8.471L31.531,9.531C31.037,10.033 30.187,9.637 30.254,8.936L30.396,7.457C30.406,7.105 29.962,6.944 29.743,7.22L28.9,8.442C28.501,9.022 27.594,8.779 27.539,8.077L27.422,6.596C27.37,6.248 26.906,6.166 26.738,6.475L26.122,7.827C25.83,8.468 24.895,8.386 24.719,7.704L24.347,6.266C24.236,5.932 23.764,5.932 23.653,6.266L23.281,7.704C23.105,8.386 22.17,8.468 21.878,7.827L21.262,6.475C21.095,6.166 20.63,6.248 20.578,6.596L20.461,8.077C20.405,8.78 19.499,9.023 19.1,8.442L18.259,7.218C18.04,6.942 17.597,7.104 17.606,7.455L17.748,8.934C17.815,9.635 16.965,10.032 16.471,9.529L15.43,8.47C15.167,8.237 14.758,8.473 14.829,8.817L15.226,10.249C15.414,10.927 14.645,11.466 14.072,11.057L12.863,10.194C12.563,10.01 12.202,10.313 12.331,10.64L12.97,11.981C13.273,12.617 12.609,13.28 11.974,12.977L10.633,12.338C10.306,12.209 10.003,12.57 10.187,12.87L11.05,14.08C11.459,14.653 10.92,15.422 10.242,15.234L8.81,14.837C8.465,14.767 8.229,15.175 8.463,15.438L9.522,16.479C10.024,16.973 9.628,17.823 8.927,17.756L7.448,17.614C7.096,17.604 6.935,18.048 7.21,18.266L8.434,19.107C9.014,19.506 8.771,20.413 8.069,20.468L6.588,20.585C6.24,20.637 6.158,21.101 6.467,21.269L7.819,21.885C8.46,22.177 8.378,23.112 7.696,23.288L6.258,23.66C5.924,23.771 5.924,24.243 6.258,24.354L7.696,24.726C8.378,24.902 8.46,25.837 7.819,26.129L6.467,26.745C6.158,26.912 6.24,27.377 6.588,27.429L8.069,27.546C8.771,27.601 9.014,28.508 8.434,28.907L7.21,29.75C6.934,29.969 7.096,30.412 7.447,30.403L8.926,30.261C9.627,30.194 10.024,31.044 9.521,31.538L8.462,32.579C8.229,32.842 8.465,33.251 8.809,33.18L10.24,32.783C10.919,32.595 11.457,33.364 11.048,33.937L10.185,35.146C10.001,35.446 10.304,35.807 10.631,35.678L11.972,35.039C12.608,34.736 13.271,35.4 12.968,36.035L12.329,37.376C12.2,37.703 12.561,38.006 12.861,37.822L14.07,36.959C14.643,36.55 15.412,37.089 15.224,37.767L14.827,39.199C14.756,39.544 15.165,39.78 15.428,39.546L16.469,38.486C16.963,37.984 17.813,38.38 17.746,39.081L17.604,40.56C17.594,40.912 18.038,41.073 18.257,40.797L19.098,39.573C19.497,38.993 20.404,39.236 20.459,39.938L20.576,41.419C20.628,41.767 21.092,41.849 21.26,41.54L21.876,40.188C22.168,39.547 23.103,39.629 23.279,40.311L23.651,41.749C23.762,42.083 24.234,42.083 24.345,41.749L24.717,40.311C24.893,39.629 25.828,39.548 26.12,40.188L26.736,41.54C26.904,41.849 27.368,41.767 27.42,41.419L27.537,39.938C27.592,39.236 28.499,38.993 28.898,39.573L29.74,40.797C29.959,41.073 30.402,40.911 30.393,40.56L30.251,39.081C30.184,38.38 31.034,37.983 31.528,38.486L32.569,39.546C32.832,39.779 33.241,39.543 33.17,39.199L32.773,37.767C32.585,37.089 33.354,36.55 33.927,36.959L35.137,37.822C35.437,38.006 35.798,37.703 35.669,37.376L35.03,36.035C34.727,35.399 35.391,34.736 36.026,35.039L37.367,35.678C37.694,35.807 37.997,35.446 37.813,35.146L36.95,33.936C36.541,33.363 37.08,32.594 37.758,32.782L39.19,33.179C39.535,33.249 39.771,32.841 39.537,32.578L38.477,31.537C37.975,31.043 38.372,30.193 39.072,30.26L40.551,30.402C40.903,30.412 41.064,29.968 40.788,29.749L39.564,28.907C38.984,28.508 39.227,27.601 39.929,27.546L41.41,27.429C41.758,27.377 41.84,26.913 41.531,26.745L40.179,26.129C39.538,25.837 39.62,24.902 40.302,24.726L41.74,24.354C42.074,24.243 42.074,23.771 41.74,23.66L40.302,23.288C39.62,23.112 39.538,22.177 40.179,21.885L41.531,21.269C41.84,21.102 41.758,20.637 41.41,20.585L39.831,20.461C39.162,20.408 38.93,19.544 39.483,19.164L40.789,18.267C41.065,18.048 40.903,17.605 40.552,17.614L39.073,17.756C38.372,17.823 37.975,16.973 38.478,16.479L39.538,15.438C39.771,15.175 39.536,14.766 39.191,14.837ZM23.496,23.135C23.974,22.859 24.586,23.023 24.862,23.501C25.138,23.979 24.974,24.591 24.496,24.867C24.018,25.143 23.406,24.979 23.13,24.501C22.854,24.023 23.018,23.411 23.496,23.135ZM14.227,34.02C13.327,33.148 12.529,32.141 11.871,31.001C8.603,25.34 9.746,18.354 14.223,13.992C15.147,13.092 16.684,13.336 17.328,14.453L21.856,22.295C22.466,23.351 22.466,24.651 21.856,25.707L17.326,33.554C16.683,34.668 15.151,34.915 14.227,34.02ZM37.555,27.484C36.652,31.001 34.39,34.167 30.996,36.126C27.602,38.085 23.73,38.462 20.233,37.485C18.982,37.136 18.408,35.681 19.057,34.556L23.248,27.297C24.068,25.877 25.583,25.002 27.223,25.002L35.606,25.002C36.905,25.001 37.878,26.225 37.555,27.484ZM37.557,20.551C37.87,21.798 36.89,23.001 35.604,23.001L26.544,23.001C25.325,23.001 24.198,22.351 23.589,21.295L19.061,13.453C18.416,12.336 18.974,10.883 20.215,10.534C26.231,8.837 32.852,11.34 36.121,17.002C36.778,18.141 37.252,19.335 37.557,20.551Z" style="fill:rgb(189,189,189);fill-rule:nonzero;"/>
                </g>
            </g>
        </g>
    </g>
</svg>
