<?xml version="1.0" encoding="UTF-8" standalone="no"?>
<!DOCTYPE svg PUBLIC "-//W3C//DTD SVG 1.1//EN" "http://www.w3.org/Graphics/SVG/1.1/DTD/svg11.dtd">
<svg width="100%" height="100%" viewBox="0 0 2931 2932" version="1.1" xmlns="http://www.w3.org/2000/svg" xmlns:xlink="http://www.w3.org/1999/xlink" xml:space="preserve" xmlns:serif="http://www.serif.com/" style="fill-rule:evenodd;clip-rule:evenodd;stroke-linejoin:round;stroke-miterlimit:2;">
    <g transform="matrix(1,0,0,1,-2384.21,0)">
        <g transform="matrix(1,0,0,1,1520.9,0)">
            <rect x="1201.06" y="522.808" width="2197.48" height="1750.12"/>
            <g transform="matrix(1,0,0,1,863.304,0)">
                <path d="M1465.5,0C656.144,0 0,656.126 0,1465.48C0,2274.93 656.144,2931.02 1465.5,2931.02C2274.89,2931.02 2931,2274.93 2931,1465.48C2931,656.178 2274.93,0.07 1465.48,0.07L1465.5,0ZM2137.57,2113.65C2111.25,2156.82 2055,2170.35 2011.97,2144.04C1667.83,1933.71 1234.67,1886.2 724.55,2002.73C675.393,2014 626.393,1983.18 615.194,1934.04C603.941,1884.89 634.618,1835.89 683.898,1824.69C1242.15,1697.06 1721,1751.99 2107.28,1988.03C2150.33,2014.46 2163.97,2070.63 2137.55,2113.68L2137.57,2113.65ZM2316.94,1714.66C2283.8,1768.44 2213.48,1785.31 2159.78,1752.29C1765.94,1510.19 1165.39,1440.07 699.456,1581.51C639.028,1599.76 575.206,1565.7 556.866,1505.38C538.666,1444.95 572.739,1381.26 633.061,1362.88C1165.29,1201.39 1826.93,1279.62 2279.3,1557.6C2333.03,1590.68 2350,1661.03 2316.93,1714.68L2316.94,1714.66ZM2332.34,1299.14C1859.95,1018.6 1080.74,992.808 629.787,1129.67C557.373,1151.64 480.793,1110.76 458.848,1038.34C436.903,965.893 477.748,889.365 550.215,867.35C1067.88,710.201 1928.44,740.563 2472.24,1063.38C2537.37,1102.04 2558.74,1186.16 2520.13,1251.21C2481.63,1316.35 2397.28,1337.82 2332.36,1299.14L2332.34,1299.14Z" style="fill:rgb(46,189,89);fill-rule:nonzero;"/>
            </g>
        </g>
    </g>
</svg>
